if (_typeface_js && _typeface_js.loadFace) _typeface_js.loadFace({"glyphs":{"—":{"x_min":41.375,"x_max":1022.765625,"ha":1064,"o":"m 1022 370 q 1013 338 1019 355 q 1002 309 1007 320 l 58 309 l 41 325 q 50 356 44 340 q 62 387 56 373 l 1006 387 l 1022 370 "},"⁄":{"x_min":134.28125,"x_max":728.40625,"ha":814,"o":"m 214 2 q 184 -10 198 -5 q 151 -20 169 -15 l 134 0 l 651 816 q 680 828 664 821 q 711 838 696 834 l 728 819 l 214 2 "},"†":{"x_min":48.078125,"x_max":615.296875,"ha":663,"o":"m 615 729 q 591 676 605 705 q 559 622 576 647 q 466 645 513 638 q 362 656 419 652 q 368 558 362 608 q 387 461 374 508 q 368 310 373 386 q 362 169 363 234 q 364 85 361 130 q 371 0 367 40 q 341 -15 358 -10 q 307 -27 324 -21 l 288 -12 q 295 80 292 32 q 298 169 298 128 q 291 311 296 236 q 272 461 286 386 q 290 558 285 508 q 297 656 295 609 q 236 651 265 654 q 180 645 208 649 q 123 635 151 641 q 65 622 95 629 l 48 651 q 72 703 57 674 q 103 757 86 732 q 195 734 149 741 q 297 724 241 726 q 287 841 295 785 q 262 948 280 898 q 316 979 288 965 q 368 1004 345 994 l 397 987 q 373 856 382 923 q 363 725 365 789 q 423 728 394 726 q 481 735 453 731 q 539 745 510 739 q 598 758 567 750 l 615 729 "},"’":{"x_min":59.875,"x_max":256,"ha":318,"o":"m 256 878 q 246 821 256 852 q 220 760 237 790 q 177 701 202 729 q 119 653 152 673 l 89 676 q 114 709 103 690 q 132 747 124 728 q 142 784 139 766 q 146 816 146 802 q 127 869 146 846 q 70 894 109 892 l 59 924 q 85 943 65 933 q 128 963 105 954 q 174 980 152 973 q 209 986 197 986 q 243 941 231 964 q 256 878 256 917 "},"›":{"x_min":94.953125,"x_max":368.953125,"ha":423,"o":"m 368 291 l 124 12 l 94 32 l 251 316 l 95 598 l 124 619 l 367 341 l 368 291 "},"‹":{"x_min":54.265625,"x_max":328.265625,"ha":423,"o":"m 299 12 l 54 291 l 54 315 q 54 332 54 324 q 55 341 54 339 l 299 619 l 327 598 l 320 586 q 303 554 314 574 q 278 508 292 534 q 248 457 263 483 q 220 405 233 430 q 195 360 206 379 q 177 328 184 340 q 171 316 170 316 l 328 32 l 299 12 "},"„":{"x_min":59.875,"x_max":542,"ha":624,"o":"m 256 41 q 246 -15 256 15 q 220 -76 237 -46 q 177 -135 202 -107 q 119 -184 152 -162 l 89 -160 q 114 -127 103 -146 q 132 -89 124 -108 q 142 -52 139 -70 q 146 -20 146 -34 q 127 32 146 9 q 70 57 109 55 l 59 87 q 85 106 65 96 q 128 126 105 117 q 174 143 152 136 q 209 149 197 149 q 243 104 231 127 q 256 41 256 80 m 542 41 q 532 -15 542 15 q 505 -76 523 -46 q 462 -135 488 -107 q 405 -184 437 -162 l 376 -160 q 400 -127 390 -146 q 418 -89 411 -108 q 429 -52 425 -70 q 433 -20 433 -34 q 414 32 433 9 q 356 57 395 55 l 345 87 q 370 106 350 96 q 414 126 390 117 q 460 143 437 136 q 495 149 483 149 q 529 104 517 127 q 542 41 542 80 "},"”":{"x_min":59.875,"x_max":542,"ha":606,"o":"m 256 878 q 246 821 256 852 q 220 760 237 790 q 177 701 202 729 q 119 653 152 673 l 89 676 q 114 709 103 690 q 132 747 124 728 q 142 784 139 766 q 146 816 146 802 q 127 869 146 846 q 70 894 109 892 l 59 924 q 85 943 65 933 q 128 963 105 954 q 174 980 152 973 q 209 986 197 986 q 243 941 231 964 q 256 878 256 917 m 542 878 q 532 821 542 852 q 505 760 523 790 q 462 701 488 729 q 405 653 437 673 l 376 676 q 400 709 390 690 q 418 747 411 728 q 429 784 425 766 q 433 816 433 802 q 414 869 433 846 q 356 894 395 892 l 345 924 q 370 943 350 933 q 414 963 390 954 q 460 980 437 973 q 495 986 483 986 q 529 941 517 964 q 542 878 542 917 "},"€":{"x_min":16.28125,"x_max":627.359375,"ha":652,"o":"m 423 317 l 201 317 q 229 197 209 246 q 276 118 248 148 q 337 74 303 88 q 406 61 370 61 q 447 66 427 61 q 490 85 467 72 q 540 120 513 98 q 602 173 567 142 q 609 167 605 172 q 616 158 613 163 q 622 149 619 153 q 627 143 625 145 q 553 65 586 96 q 489 15 520 34 q 426 -11 458 -3 q 358 -20 395 -20 q 261 0 307 -20 q 181 61 216 20 q 122 166 145 102 q 93 317 99 230 l 31 317 l 16 333 q 23 355 19 344 q 31 378 27 367 l 91 378 l 91 380 q 95 466 91 425 l 51 466 l 36 482 q 43 504 40 493 q 51 527 47 516 l 103 527 q 147 661 118 603 q 218 759 176 719 q 313 818 260 798 q 429 838 366 838 q 489 832 463 838 q 538 817 516 827 q 578 796 560 808 q 614 769 596 784 q 612 756 618 766 q 595 733 606 746 q 573 707 585 720 q 553 686 561 694 l 529 690 q 497 719 512 706 q 464 742 482 732 q 424 757 446 752 q 372 763 402 763 q 323 752 349 763 q 274 716 297 742 q 231 643 250 689 q 203 527 212 598 l 444 527 l 461 511 l 444 466 l 198 466 q 197 436 197 451 q 196 405 196 421 l 196 378 l 423 378 l 440 362 l 423 317 "},"–":{"x_min":41.375,"x_max":610.40625,"ha":652,"o":"m 610 370 q 601 338 607 355 q 590 309 596 320 l 58 309 l 41 325 q 50 356 44 340 q 62 387 56 373 l 594 387 l 610 370 "},"“":{"x_min":62,"x_max":546.484375,"ha":606,"o":"m 259 712 q 233 693 253 704 q 189 672 213 681 q 144 656 166 662 q 109 651 121 650 q 74 694 86 671 q 62 757 62 717 q 71 814 62 784 q 97 875 80 845 q 141 934 115 906 q 199 983 167 961 l 228 959 q 203 925 214 944 q 185 888 193 907 q 175 851 178 869 q 172 818 172 833 q 190 766 172 788 q 248 742 208 744 l 259 712 m 546 712 q 520 693 540 704 q 476 672 500 681 q 431 656 453 662 q 396 651 408 650 q 376 671 385 660 q 361 694 368 681 q 352 722 355 706 q 349 757 349 738 q 358 814 349 784 q 384 875 367 845 q 428 934 402 906 q 486 983 454 961 l 515 959 q 490 925 501 944 q 472 888 480 907 q 462 851 465 869 q 459 818 459 833 q 477 766 459 788 q 534 742 495 744 l 546 712 "},"‘":{"x_min":62,"x_max":259.5,"ha":318,"o":"m 259 712 q 233 693 253 704 q 189 672 213 681 q 144 656 166 662 q 109 651 121 650 q 74 694 86 671 q 62 757 62 717 q 71 814 62 784 q 97 875 80 845 q 141 934 115 906 q 199 983 167 961 l 228 959 q 203 925 214 944 q 185 888 193 907 q 175 851 178 869 q 172 818 172 833 q 190 766 172 788 q 248 742 208 744 l 259 712 "},"ﬁ":{"x_min":30.875,"x_max":770.984375,"ha":808,"o":"m 554 985 q 544 969 554 980 q 521 947 535 958 q 493 925 507 935 q 468 910 478 915 q 435 935 452 924 q 403 952 419 945 q 375 962 388 959 q 353 966 362 966 q 315 954 335 966 q 278 911 295 942 q 249 826 261 880 q 238 689 238 773 l 238 631 l 412 631 l 432 611 q 417 591 426 602 q 399 571 408 580 q 381 553 389 561 q 366 543 372 545 q 321 559 350 551 q 238 567 292 567 l 238 69 q 245 61 238 65 q 269 52 252 57 q 312 42 286 48 q 379 29 339 36 l 379 0 l 41 0 l 41 29 q 111 49 87 37 q 136 69 136 61 l 136 567 l 45 567 l 30 585 l 83 631 l 136 631 l 136 652 q 146 786 136 731 q 176 878 157 841 q 219 941 195 916 q 271 988 244 967 q 311 1015 289 1003 q 354 1034 332 1026 q 395 1046 375 1042 q 427 1051 414 1051 q 470 1042 448 1051 q 511 1024 493 1034 q 542 1002 530 1013 q 554 985 554 991 m 479 0 l 479 29 q 549 49 525 38 q 574 70 574 61 l 574 454 q 572 510 574 488 q 562 543 571 531 q 534 560 553 555 q 479 569 515 566 l 479 596 q 523 606 500 600 q 569 619 546 612 q 614 634 593 626 q 652 651 635 642 l 676 651 l 676 70 q 698 50 676 62 q 770 29 721 38 l 770 0 l 479 0 m 696 854 q 689 818 696 835 q 673 789 683 801 q 648 769 662 776 q 617 762 634 762 q 573 778 586 762 q 560 826 560 795 q 566 862 560 845 q 583 892 572 879 q 608 911 594 904 q 638 919 622 919 q 696 854 696 919 "},"…":{"x_min":89,"x_max":860.40625,"ha":929,"o":"m 250 83 q 242 39 250 59 q 223 4 235 19 q 193 -18 210 -10 q 156 -27 176 -27 q 104 -7 120 -27 q 89 48 89 12 q 96 91 89 71 q 116 127 103 111 q 146 151 129 142 q 183 160 164 160 q 233 140 216 160 q 250 83 250 120 m 555 83 q 548 39 555 59 q 528 4 541 19 q 498 -18 515 -10 q 461 -27 481 -27 q 409 -7 425 -27 q 394 48 394 12 q 401 91 394 71 q 421 127 409 111 q 452 151 434 142 q 488 160 469 160 q 538 140 522 160 q 555 83 555 120 m 860 83 q 853 39 860 59 q 833 4 846 19 q 803 -18 821 -10 q 767 -27 786 -27 q 714 -7 730 -27 q 699 48 699 12 q 706 91 699 71 q 727 127 714 111 q 757 151 740 142 q 793 160 774 160 q 843 140 827 160 q 860 83 860 120 "},"‚":{"x_min":59.875,"x_max":256,"ha":318,"o":"m 256 41 q 246 -15 256 15 q 220 -76 237 -46 q 177 -135 202 -107 q 119 -184 152 -162 l 89 -160 q 114 -127 103 -146 q 132 -89 124 -108 q 142 -52 139 -70 q 146 -20 146 -34 q 127 32 146 9 q 70 57 109 55 l 59 87 q 85 106 65 96 q 128 126 105 117 q 174 143 152 136 q 209 149 197 149 q 243 104 231 127 q 256 41 256 80 "},"‑":{"x_min":41.375,"x_max":426.609375,"ha":468,"o":"m 426 370 q 416 338 422 355 q 405 309 411 320 l 58 309 l 41 325 q 50 356 44 340 q 62 387 56 373 l 409 387 l 426 370 "},"‡":{"x_min":47.734375,"x_max":614.9375,"ha":663,"o":"m 614 729 q 590 676 605 705 q 559 622 576 647 q 466 644 512 637 q 363 656 420 652 q 369 574 364 613 q 388 488 375 534 q 370 402 376 443 q 364 321 365 360 q 424 325 395 322 q 481 331 452 327 q 538 341 509 335 q 597 354 567 347 l 614 325 q 590 273 605 302 q 559 218 576 244 q 467 239 513 230 q 363 252 420 248 q 371 133 363 186 q 398 28 379 80 q 343 -2 372 11 q 292 -27 315 -17 l 263 -10 q 288 119 279 54 q 298 252 296 183 q 237 247 266 250 q 180 240 209 244 q 123 230 152 236 q 64 218 95 225 l 47 247 q 71 300 57 271 q 103 354 86 329 q 195 331 148 338 q 298 321 241 323 q 290 402 296 360 q 273 488 285 444 q 291 574 286 535 q 298 656 296 613 q 180 644 235 652 q 64 622 125 635 l 47 651 q 71 703 57 674 q 103 757 86 732 q 195 734 148 741 q 298 724 241 726 q 287 842 296 788 q 263 948 279 897 q 317 979 289 965 q 369 1004 346 994 l 398 987 q 376 858 385 923 q 364 725 367 792 q 481 735 426 727 q 597 758 536 742 l 614 729 "},"•":{"x_min":47.46875,"x_max":337.75,"ha":386,"o":"m 337 448 q 325 373 337 407 q 292 315 314 339 q 241 277 271 291 q 176 264 212 264 q 119 275 143 264 q 79 306 95 286 q 55 354 63 327 q 47 415 47 382 q 60 489 47 455 q 94 548 72 523 q 145 586 115 572 q 209 600 174 600 q 264 588 240 600 q 304 557 288 577 q 329 509 320 537 q 337 448 337 482 "},"ﬂ":{"x_min":30.875,"x_max":777.734375,"ha":808,"o":"m 472 0 l 472 29 q 521 38 501 33 q 552 49 540 44 q 568 59 563 54 q 574 70 574 65 l 574 878 q 569 926 574 909 q 555 951 565 942 q 535 960 546 957 q 520 947 528 953 q 492 925 507 935 q 467 910 478 915 q 435 935 451 924 q 403 952 418 945 q 374 962 388 959 q 352 966 361 966 q 315 954 335 966 q 278 911 295 942 q 249 826 260 880 q 238 689 238 773 l 238 631 l 412 631 l 432 611 q 417 591 426 602 q 399 571 408 580 q 381 553 389 561 q 366 543 372 545 q 321 559 350 551 q 238 567 292 567 l 238 69 q 245 61 238 65 q 269 52 252 57 q 312 42 286 48 q 379 29 339 36 l 379 0 l 41 0 l 41 29 q 111 49 87 37 q 136 69 136 61 l 136 567 l 45 567 l 30 585 l 83 631 l 136 631 l 136 652 q 146 786 136 731 q 176 878 157 841 q 219 941 194 916 q 270 988 243 967 q 310 1015 289 1003 q 353 1034 332 1026 q 394 1046 375 1042 q 426 1051 413 1051 q 470 1042 447 1051 q 510 1023 492 1034 q 535 1008 524 1016 q 569 1017 552 1013 q 651 1051 609 1029 l 676 1027 l 676 70 q 699 49 676 60 q 777 29 722 38 l 777 0 l 472 0 "},"‰":{"x_min":52,"x_max":1356,"ha":1408,"o":"m 1257 196 q 1248 278 1257 243 q 1226 337 1239 313 q 1194 371 1212 360 q 1156 383 1175 383 q 1126 373 1141 383 q 1099 343 1111 363 q 1080 294 1087 324 q 1073 225 1073 265 q 1080 140 1073 176 q 1101 81 1088 104 q 1133 46 1114 58 q 1173 35 1152 35 q 1205 45 1190 35 q 1232 75 1220 55 q 1250 126 1243 95 q 1257 196 1257 156 m 1356 209 q 1339 120 1356 162 q 1296 47 1323 78 q 1232 -2 1269 15 q 1157 -21 1196 -21 q 1083 -2 1116 -21 q 1025 47 1049 15 q 988 120 1001 78 q 975 209 975 162 q 991 298 975 256 q 1035 371 1008 339 q 1099 420 1063 402 q 1173 439 1135 439 q 1248 421 1214 439 q 1305 371 1281 403 q 1342 298 1329 340 q 1356 209 1356 257 m 810 196 q 801 278 810 243 q 778 337 793 313 q 746 371 764 360 q 708 383 727 383 q 678 373 693 383 q 652 343 664 363 q 634 294 641 324 q 627 225 627 265 q 634 140 627 176 q 655 81 641 104 q 686 46 668 58 q 726 35 704 35 q 758 45 743 35 q 784 75 773 55 q 803 126 796 95 q 810 196 810 156 m 907 209 q 890 120 907 162 q 847 47 874 78 q 783 -2 820 15 q 708 -21 747 -21 q 635 -2 669 -21 q 578 47 602 15 q 541 120 555 78 q 528 209 528 162 q 544 298 528 256 q 588 371 561 339 q 652 420 616 402 q 726 439 688 439 q 800 421 767 439 q 857 371 833 403 q 894 298 881 340 q 907 209 907 257 m 242 10 q 224 0 236 5 q 199 -8 212 -4 q 172 -17 185 -13 q 151 -24 159 -21 l 134 0 l 715 805 q 759 825 734 817 q 805 839 784 833 l 825 816 l 242 10 m 334 595 q 325 678 334 643 q 302 736 317 713 q 270 770 288 759 q 232 782 251 782 q 202 772 217 782 q 176 742 188 762 q 157 693 164 723 q 150 624 150 664 q 157 539 150 575 q 178 480 164 503 q 210 445 191 457 q 250 434 228 434 q 282 444 266 434 q 308 474 297 454 q 327 525 320 494 q 334 595 334 555 m 432 608 q 415 519 432 561 q 372 446 399 477 q 308 396 344 414 q 232 378 272 378 q 159 396 192 378 q 102 446 126 414 q 65 519 78 477 q 52 608 52 561 q 68 697 52 655 q 111 770 84 738 q 175 819 139 801 q 250 838 211 838 q 324 820 291 838 q 381 770 357 802 q 418 697 405 739 q 432 608 432 656 "}}}
